<svg width="110" height="110" viewBox="0 0 110 110" fill="none" xmlns="http://www.w3.org/2000/svg">
<path fill-rule="evenodd" clip-rule="evenodd" d="M54.7929 110C85.1684 110.114 109.885 85.5825 110 55.2071C110.114 24.8316 85.5825 0.114769 55.2071 0.000398292C24.8316 -0.113972 0.114769 24.4175 0.000398292 54.7929C-0.113972 85.1684 24.4175 109.885 54.7929 110ZM53.1053 31.819C51.1199 27.4949 52.2883 22.2199 56.2093 19.177L72.48 40.1428C77.3219 46.1396 78.9737 54.4606 76.1055 62.2143C72.966 70.7012 65.2726 76.1801 56.817 76.9067C59.1177 81.3107 58.0125 86.8637 53.9487 90.0175L37.5329 68.8649C32.5198 62.8494 30.7735 54.3936 33.6851 46.5224C36.8409 37.9914 44.598 32.4998 53.1053 31.819ZM43.5174 50.1595C45.8419 43.8756 52.8203 40.6659 59.1042 42.9904C65.388 45.3149 68.5977 52.2933 66.2732 58.5772C63.9487 64.861 56.9703 68.0707 50.6865 65.7463C44.4026 63.4218 41.1929 56.4433 43.5174 50.1595Z" fill="url(#paint0_linear)"/>
<defs>
<linearGradient id="paint0_linear" x1="181.897" y1="-142.358" x2="32.0528" y2="105.294" gradientUnits="userSpaceOnUse">
<stop offset="0.429571" stop-color="#25F6D0"/>
<stop offset="0.999847" stop-color="#3880FF"/>
<stop offset="0.999947" stop-color="#3880FF"/>
</linearGradient>
</defs>
</svg>
