<svg width="110" height="110" viewBox="0 0 87 136" fill="none" xmlns="http://www.w3.org/2000/svg">
<path fill-rule="evenodd" clip-rule="evenodd" d="M45.6878 0C38.2034 5.80839 35.973 15.8775 39.7629 24.1314C23.5238 25.4309 8.71673 35.9134 2.69296 52.1976C-2.86611 67.2256 0.470044 83.37 10.0439 94.853L41.3729 135.222C49.13 129.202 51.2397 118.602 46.848 110.196C62.9881 108.809 77.6734 98.3507 83.666 82.1507C89.1396 67.3536 85.9893 51.4742 76.752 40.028L45.6878 0ZM51.2134 45.4557C39.2187 41.0187 25.898 47.1454 21.461 59.1402C17.024 71.135 23.1507 84.4556 35.1455 88.8926C47.1403 93.3296 60.4609 87.2029 64.8979 75.2081C69.335 63.2133 63.2082 49.8927 51.2134 45.4557Z" fill="url(#paint0_linear)"/>
<defs>
<linearGradient id="paint0_linear" x1="56.7329" y1="-17.2247" x2="-21.4561" y2="137.493" gradientUnits="userSpaceOnUse">
<stop offset="0.127192" stop-color="#25F6D0"/>
<stop offset="0.732629" stop-color="#3880FF"/>
</linearGradient>
</defs>
</svg>
