<svg width="30" height="30" viewBox="0 0 185 185" fill="none" xmlns="http://www.w3.org/2000/svg">
<path fill-rule="evenodd" clip-rule="evenodd" d="M93.4754 1.78319C43.2221 1.10194 1.93149 41.288 1.25024 91.5413C0.568984 141.795 40.7551 183.085 91.0084 183.766C141.262 184.448 182.552 144.262 183.234 94.0084C183.915 43.7551 143.729 2.46445 93.4754 1.78319ZM94.2586 135.901L95.1241 137.101C101.55 146.009 99.5374 158.44 90.6292 164.866L57.4187 118.825C48.6498 107.13 46.0791 91.2484 52.0314 76.7421C58.5011 60.9751 73.2785 51.1242 89.224 50.1749L87.7015 48.0643C81.2797 39.1616 83.2909 26.7386 92.1936 20.3168L125.638 66.6821C134.755 78.4283 137.508 94.5909 131.459 109.334C124.988 125.103 110.207 134.955 94.2586 135.901ZM113.049 101.779C108.221 113.545 94.7695 119.17 83.0037 114.342C71.2378 109.514 65.6135 96.0621 70.4413 84.2962C75.2692 72.5304 88.7211 66.906 100.487 71.7339C112.253 76.5617 117.877 90.0136 113.049 101.779Z" fill="url(#paint0_linear)"/>
<defs>
<linearGradient id="paint0_linear" x1="128.5" y1="-23" x2="2.00259e-06" y2="185" gradientUnits="userSpaceOnUse">
<stop offset="0.123521" stop-color="#25F6D0"/>
<stop offset="0.773508" stop-color="#3880FF"/>
</linearGradient>
</defs>
</svg>
