<svg width="30" height="30" viewBox="0 0 30 30" fill="none" xmlns="http://www.w3.org/2000/svg">
<path fill-rule="evenodd" clip-rule="evenodd" d="M14.9435 29.9999C23.2277 30.0311 29.9687 23.3407 29.9999 15.0565C30.0311 6.77227 23.3407 0.0313005 15.0565 0.000108625C6.77227 -0.0310833 0.0313005 6.65931 0.000108625 14.9435C-0.0310833 23.2277 6.65931 29.9687 14.9435 29.9999ZM14.4833 8.67792C13.9418 7.49862 14.2604 6.05998 15.3298 5.23009L19.7673 10.948C21.0878 12.5835 21.5383 14.8529 20.756 16.9675C19.8998 19.2822 17.8016 20.7764 15.4955 20.9746C16.123 22.1757 15.8216 23.6901 14.7133 24.5502L10.2363 18.7813C8.86905 17.1408 8.39277 14.8346 9.18686 12.6879C10.0475 10.3613 12.1631 8.86359 14.4833 8.67792ZM11.8684 13.6799C12.5023 11.9661 14.4055 11.0907 16.1193 11.7247C17.8331 12.3586 18.7085 14.2618 18.0745 15.9756C17.4406 17.6894 15.5374 18.5647 13.8236 17.9308C12.1098 17.2968 11.2344 15.3936 11.8684 13.6799Z" fill="url(#paint0_linear)"/>
<defs>
<linearGradient id="paint0_linear" x1="49.6083" y1="-38.825" x2="8.74167" y2="28.7167" gradientUnits="userSpaceOnUse">
<stop offset="0.429571" stop-color="#25F6D0"/>
<stop offset="0.999847" stop-color="#3880FF"/>
</linearGradient>
</defs>
</svg>
